<?xml version="1.0" encoding="UTF-8"?><svg id="Layer_6" xmlns="http://www.w3.org/2000/svg" xmlns:xlink="http://www.w3.org/1999/xlink" viewBox="0 0 300 307"><defs><style>.cls-1{filter:url(#drop-shadow-3);}.cls-1,.cls-2,.cls-3,.cls-4{fill:red;}.cls-2{filter:url(#drop-shadow-1);}.cls-4{filter:url(#drop-shadow-2);}</style><filter id="drop-shadow-1" x="37" y="0" width="110" height="205" filterUnits="userSpaceOnUse"><feOffset dx="-7" dy="4"/><feGaussianBlur result="blur" stdDeviation="5"/><feFlood flood-color="#000" flood-opacity=".84"/><feComposite in2="blur" operator="in"/><feComposite in="SourceGraphic"/></filter><filter id="drop-shadow-2" x="150" y="99" width="109" height="208" filterUnits="userSpaceOnUse"><feOffset dx="2" dy="-6"/><feGaussianBlur result="blur-2" stdDeviation="5"/><feFlood flood-color="#000" flood-opacity=".84"/><feComposite in2="blur-2" operator="in"/><feComposite in="SourceGraphic"/></filter><filter id="drop-shadow-3" x="175.03" y="169.69" width="2" height="6" filterUnits="userSpaceOnUse"><feOffset dx="2" dy="-6"/><feGaussianBlur result="blur-3" stdDeviation="5"/><feFlood flood-color="#000" flood-opacity=".84"/><feComposite in2="blur-3" operator="in"/><feComposite in="SourceGraphic"/></filter></defs><path class="cls-3" d="M244.12,10.98c0,15.95-.45,39.91-1.34,71.87-.89,31.97-1.34,55.99-1.34,72.08v135.5c0,3.78-1.36,8.45-4.08,8.45-2.25,0-5.65.14-10.2.42-4.55.28-7.95.42-10.2.42-2.44,0-6.1-.28-10.97-.84s-8.53-.84-10.97-.84c-1.69,0-3.71-2.31-6.05-6.92-6.75-13.57-21.95-43.65-45.58-90.23-6.47-13.01-16.32-32.17-29.54-57.49-.38-.84-1.08-1.68-2.11-2.52-.75.98-1.13,2.52-1.13,4.62,0,16.23.3,40.57.91,73.02.61,32.46.91,56.8.91,73.02,0,4.9-1.27,7.34-3.8,7.34h-48.68c-2.72,0-4.08-2.17-4.08-6.5,0-15.11.49-37.91,1.48-68.41.98-30.5,1.48-53.37,1.48-68.62,0-16.09-.45-40.15-1.34-72.18-.89-32.03-1.34-56.03-1.34-71.98,0-3.08,1.83-4.62,5.49-4.62,5.44,0,12.15-.56,20.12-1.68,1.88-.28,5.58-1.19,11.11-2.73,4.69-1.26,8.39-1.89,11.11-1.89,1.13,0,2.86,2.38,5.21,7.13l52.48,107.23c4.69,9.65,11.77,23.78,21.24,42.39,2.34,4.34,4.36,6.5,6.05,6.5,1.22,0,1.83-5.46,1.83-16.37,0-14.69-.54-36.79-1.62-66.31-1.08-29.51-1.62-51.69-1.62-66.52,0-5.17.99-7.77,2.96-7.77,5.63,0,14.11-.35,25.46-1.05,11.35-.7,19.84-1.05,25.46-1.05,1.78,0,2.67,2.17,2.67,6.5Z"/><path class="cls-2" d="M138.29,185.59L59.47,29.08c.77-19.64,15.95-23.08,15.28-10.99-.02.35-1.57,5.28-1.34,5.25"/><path class="cls-4" d="M163.06,120.42l77.89,159.29c.45,16.15-1.31,18.21-4.86,18.21-.23,0-.46.02-.69.05l-3.14-3.81c-1.62.03-3.38.87-4.2.19"/><path class="cls-1" d="M175.03,175.69"/></svg>