<?xml version="1.0" encoding="UTF-8"?>
<svg id="Layer_1" data-name="Layer 1" xmlns="http://www.w3.org/2000/svg" viewBox="0 0 215.76 75.55">
  <defs>
    <style>
      .cls-1 {
        fill: #e50914;
        stroke: #e50914;
        stroke-miterlimit: 10;
      }
    </style>
  </defs>
  <path class="cls-1" d="M28.85,20.25c-4.31,0-8.62.01-12.94.02-.12,3.26-.27,6.5-.4,9.73,3.43-.04,6.86-.07,10.28-.1-.09,2.65-.17,5.26-.21,7.84-3.44.09-6.87.19-10.31.29-.09,5.56.04,11.02.67,16.31-2.23.27-4.46.55-6.69.85-1.83-14.33.05-28.99.15-43.53,6.53,0,13.07,0,19.6,0-.01,2.87-.08,5.75-.17,8.61Z"/>
  <path class="cls-1" d="M38.3,44.88c3.69-.18,7.37-.34,11.06-.49.05,2.33.14,4.54.3,6.58-5.84.45-11.68.97-17.52,1.56-1.19-11.8.11-26.35.18-40.88,2.18,0,4.36,0,6.54,0-.05,11.65-.8,23.31-.56,33.24Z"/>
  <path class="cls-1" d="M59.58,11.64c-.04,14.53-.8,28.98-.15,38.63-2.15.14-4.3.29-6.45.44-.76-10.07.11-24.55.16-39.07,2.15,0,4.29,0,6.44,0Z"/>
  <path class="cls-1" d="M86.06,11.64c-2.51,6.75-5.11,13.46-7.71,19.6,2.77,7.07,5.63,13.32,8.62,17.75-2.5.07-5,.15-7.49.25-1.98-3.07-3.87-6.97-5.71-11.36-1.88,4.45-3.72,8.46-5.38,11.87-2.04.11-4.09.22-6.13.35,2.53-5.22,5.49-11.61,8.45-18.71-2.46-6.19-4.83-12.97-7.34-19.75,2.51,0,5.01,0,7.52,0,1.48,4.41,2.91,8.81,4.35,13.05,1.63-4.24,3.23-8.64,4.8-13.05,2.01,0,4.01,0,6.02,0Z"/>
  <path class="cls-1" d="M111.06,27.49c-2.26.21-4.53.42-6.79.63-.09-5.75-1.6-8.88-4.54-8.85-3.37-.08-5.09,4.88-5.13,13.39-.02,4.85.44,7.69,1.36,9.14.93,1.45,2.22,2.1,3.88,2.09,2.69-.05,4.33-1.82,4.93-6.29,2.1.16,4.2.33,6.31.49-.4,4.23-1.65,6.89-3.71,8.59-2.06,1.69-4.58,2.39-7.56,2.44-3.65.02-6.65-.91-8.98-3.51-2.33-2.62-3.49-6.74-3.44-13.01.05-5.88,1.21-11.21,3.43-15.35,2.23-4.16,5.24-6.27,9.06-6.27,6.62-.08,10.34,5.84,11.19,16.52Z"/>
  <path class="cls-1" d="M121.4,43.23c3.68.03,7.36.08,11.04.14-.01,2.1-.05,4-.1,5.68-5.85-.18-11.71-.29-17.56-.34.07-8.15-.02-22.54-.02-37.07,2.18,0,4.36,0,6.54,0,0,11.65.13,23.22.1,31.59Z"/>
  <path class="cls-1" d="M145.61,49.99c-3.72-.22-6.52-1.53-8.51-4.61-2-3.1-3.03-7.27-3.08-12.88-.05-5.7.92-10.95,2.95-15.16,2.03-4.23,4.96-6.37,8.77-6.37,3.85,0,6.74,2.28,8.75,6.8,2.01,4.5,3.12,9.61,3.21,14.97.1,5.78-.92,10.15-3.04,13.26-2.12,3.1-5.18,4.17-9.05,3.99ZM145.75,19.27c-3.39-.07-5.03,4.83-4.92,13.38.1,8.42,1.73,11.55,5.14,11.73,3.29.04,5.05-3.13,4.92-11.63-.14-8.64-1.87-13.54-5.14-13.47Z"/>
  <path class="cls-1" d="M182.79,11.64c.07,14.53,1.32,29.07.18,40.65-1.84-.18-3.67-.35-5.51-.52-2.93-7.79-6.9-16.62-10.73-26.15.03.72.06,1.19.08,1.42.07.72.11,1.32.12,1.8.2,8.27.33,15.92-.15,22.05-1.68-.13-3.36-.25-5.03-.37.71-9.89-.11-24.36-.15-38.88,2.32,0,4.64,0,6.96,0,3.15,8.58,6.66,17.08,9.94,25.01-.1-1.18-.16-2.08-.17-2.7-.16-7.11-.49-14.71-.52-22.31,1.66,0,3.32,0,4.99,0Z"/>
  <path class="cls-1" d="M208.22,19.96c-4.39,0-8.77-.01-13.16-.02.1,2.97.22,5.93.33,8.86,3.47.03,6.93.06,10.4.09.12,2.73.22,5.45.28,8.16-3.48-.09-6.96-.18-10.44-.27.06,3.05.06,6.05-.03,8.98,4.42.26,8.83.55,13.25.85-.11,2.86-.33,5.71-.69,8.54-6.55-.86-13.1-1.63-19.66-2.31,1.27-12.12-.1-26.68-.18-41.21,6.56,0,13.12,0,19.68,0,.02,2.77.1,5.54.21,8.32Z"/>
</svg>