<?xml version="1.0" encoding="UTF-8"?><svg id="Layer_3" xmlns="http://www.w3.org/2000/svg" xmlns:xlink="http://www.w3.org/1999/xlink" viewBox="0 0 300 300"><defs><style>.cls-1{fill:url(#radial-gradient);}.cls-2{fill:url(#radial-gradient-3);}.cls-3{fill:url(#radial-gradient-6);}.cls-3,.cls-4,.cls-5,.cls-6{isolation:isolate;}.cls-3,.cls-6{opacity:.4;}.cls-3,.cls-7{fill-rule:evenodd;}.cls-4{opacity:.5;}.cls-4,.cls-6{fill:url(#radial-gradient-2);}.cls-5{fill:url(#radial-gradient-4);opacity:.6;}.cls-7{fill:url(#radial-gradient-5);}</style><radialGradient id="radial-gradient" cx="-9.46" cy="293.18" fx="-9.46" fy="293.18" r="4.39" gradientTransform="translate(10230.25 -174.43) rotate(-90) scale(34.38 -34.38)" gradientUnits="userSpaceOnUse"><stop offset=".78" stop-color="#982dbe"/><stop offset=".91" stop-color="#b038dc" stop-opacity=".2"/><stop offset="1" stop-color="#e4a1fa" stop-opacity="0"/></radialGradient><radialGradient id="radial-gradient-2" cx=".7" cy="309.94" fx=".7" fy="309.94" r="4.39" gradientTransform="translate(-10705.13 -10898.71) rotate(135) scale(49.98 -49.98)" gradientUnits="userSpaceOnUse"><stop offset="0" stop-color="#ffdccc"/><stop offset=".33" stop-color="#ffbdc0"/><stop offset=".67" stop-color="#f89dc6"/><stop offset="1" stop-color="#e4a1fa"/></radialGradient><radialGradient id="radial-gradient-3" cx=".71" cy="309.38" fx=".71" fy="309.38" r="4.39" gradientTransform="translate(-11367.2 -11565.4) rotate(135) scale(53.1 -53.1)" gradientUnits="userSpaceOnUse"><stop offset="0" stop-color="#ffa984"/><stop offset=".33" stop-color="#ff787f"/><stop offset=".67" stop-color="#f45fa2"/><stop offset="1" stop-color="#c44af1"/></radialGradient><radialGradient id="radial-gradient-4" cx="13.77" cy="283.62" fx="13.77" fy="283.62" r="4.39" gradientTransform="translate(-139.4 6205.6) scale(21.3 -21.3)" gradientUnits="userSpaceOnUse"><stop offset="0" stop-color="#fff"/><stop offset="1" stop-color="#fff" stop-opacity="0"/></radialGradient><radialGradient id="radial-gradient-5" cx="27.68" cy="294.19" fx="27.68" fy="294.19" r="4.39" gradientTransform="translate(-3115.7 3389.21) rotate(39.52) scale(15.56 -15.56)" gradientUnits="userSpaceOnUse"><stop offset="0" stop-color="#ef7744"/><stop offset=".24" stop-color="#e50914"/><stop offset="1" stop-color="#792a95"/></radialGradient><radialGradient id="radial-gradient-6" cx="-9.63" cy="311.31" fx="-9.63" fy="311.31" r="4.39" gradientTransform="translate(-74.3 -9253.7) rotate(-180) scale(30 -30)" xlink:href="#radial-gradient-4"/></defs><g id="download-core-small"><path id="Vector" class="cls-1" d="M150,300c82.84,0,150-67.16,150-150S232.84,0,150,0,0,67.16,0,150s67.16,150,150,150Z"/><path id="Vector_2" class="cls-6" d="M276.17,150.85c3.31,67.53-48.14,120.12-114.91,117.46-66.77-2.65-123.59-59.55-126.9-127.08-3.31-67.53,48.13-120.12,114.91-117.47,66.77,2.65,123.58,59.55,126.9,127.08Z"/><path id="Vector_3" class="cls-2" d="M265.64,158.75c3.31,67.53-48.14,120.12-114.91,117.46-66.77-2.65-123.59-59.55-126.9-127.08-3.31-67.53,48.13-120.12,114.91-117.47,66.77,2.65,123.58,59.55,126.9,127.08Z"/><path id="Vector_4" class="cls-4" d="M276.17,150.85c3.31,67.53-48.14,120.12-114.91,117.46-66.77-2.65-123.59-59.55-126.9-127.08-3.31-67.53,48.13-120.12,114.91-117.47,66.77,2.65,123.58,59.55,126.9,127.08Z"/><path id="Vector_5" class="cls-5" d="M153.95,257.89c51.59,0,93.42-41.83,93.42-93.42s-41.83-93.42-93.42-93.42-93.42,41.83-93.42,93.42,41.83,93.42,93.42,93.42Z"/><path id="Vector_6" class="cls-7" d="M163.53,177.51l31.81-28.56,11.21,12.08-43.78,39.31-4.67,4.19-5.44-4.19-50.95-39.31,9.01-12.08,37.02,28.56-8.27-90.66h15.79l8.27,90.66Z"/><path id="Vector_7" class="cls-3" d="M262.53,145.44c.56,1.88,3.22,1.59,3.13-.37-2.95-60.27-53.59-111.04-113.1-113.41-9.3-.37-18.27.46-26.77,2.37-1.77.4-1.4,2.85.41,2.92,63.33,2.51,118.66,48.56,136.35,108.5Z"/></g></svg>