<?xml version="1.0" encoding="UTF-8"?><svg id="Layer_2" xmlns="http://www.w3.org/2000/svg" xmlns:xlink="http://www.w3.org/1999/xlink" viewBox="0 0 300 300"><defs><style>.cls-1{fill:url(#radial-gradient-4);}.cls-1,.cls-2{fill-rule:evenodd;}.cls-3{fill:url(#radial-gradient-5);}.cls-4{fill:url(#radial-gradient-3);}.cls-5{fill:url(#radial-gradient-2);}.cls-2{fill:url(#radial-gradient);}.cls-6{fill:url(#linear-gradient);}</style><radialGradient id="radial-gradient" cx="4.65" cy="311.46" fx="4.65" fy="311.46" r="5.21" gradientTransform="translate(-12319.36 -6897.62) rotate(118.53) scale(55.16 -46.29)" gradientUnits="userSpaceOnUse"><stop offset="0" stop-color="#802600"/><stop offset=".33" stop-color="#6f181d"/><stop offset=".67" stop-color="#5b1333"/><stop offset="1" stop-color="#391945"/></radialGradient><radialGradient id="radial-gradient-2" cx="-3.22" cy="313.19" fx="-3.22" fy="313.19" r="5.21" gradientTransform="translate(-4813.13 -11995.78) rotate(158.12) scale(32.73 -42.22)" gradientUnits="userSpaceOnUse"><stop offset="0" stop-color="#99421d"/><stop offset=".33" stop-color="#99161d"/><stop offset=".67" stop-color="#7d1845"/><stop offset="1" stop-color="#59216e"/></radialGradient><linearGradient id="linear-gradient" x1="179.8" y1="31.07" x2="417.83" y2="-159.16" gradientTransform="translate(-156 56) scale(1 -1)" gradientUnits="userSpaceOnUse"><stop offset="0" stop-color="#99161d"/><stop offset=".25" stop-color="#ca005b"/><stop offset=".35" stop-color="#ff479a"/><stop offset=".47" stop-color="#cc3cff"/><stop offset=".74" stop-color="#bc1a22"/><stop offset="1" stop-color="#c94ff5"/></linearGradient><radialGradient id="radial-gradient-3" cx="12.59" cy="311.83" fx="12.59" fy="311.83" r="5.21" gradientTransform="translate(-7898.59 -247.13) rotate(90) scale(25.96 -25.85)" gradientUnits="userSpaceOnUse"><stop offset="0" stop-color="#1c0e20" stop-opacity="0"/><stop offset="1" stop-color="#1c0e20"/></radialGradient><radialGradient id="radial-gradient-4" cx="-1.4" cy="310.66" fx="-1.4" fy="310.66" r="5.21" gradientTransform="translate(-7936.95 -11207.9) rotate(144.29) scale(47.29 -44.82)" gradientUnits="userSpaceOnUse"><stop offset="0" stop-color="#ef7744"/><stop offset=".33" stop-color="#e50914"/><stop offset=".67" stop-color="#a70d53"/><stop offset="1" stop-color="#792a95"/></radialGradient><radialGradient id="radial-gradient-5" cx="23.41" cy="407.02" fx="23.41" fy="407.02" r="5.21" gradientTransform="translate(-1091.6 -1173.26) rotate(135) scale(4.59 -4.59)" gradientUnits="userSpaceOnUse"><stop offset="0" stop-color="#ffdccc"/><stop offset=".33" stop-color="#ffbdc0"/><stop offset=".67" stop-color="#f89dc6"/><stop offset="1" stop-color="#e4a1fa"/></radialGradient></defs><g id="television-core-small"><path id="Vector" class="cls-2" d="M156.25,233.59c0-3.45-2.8-6.25-6.25-6.25h-6.25c-3.45,0-6.25,2.8-6.25,6.25v14.92c0,3.38-2.69,6.14-6.07,6.3-11.11.52-22.2,1.61-33.23,3.27l-34.43,5.16c-6.12.92-10.65,6.17-10.65,12.36v3.3c0,1.72,1.4,3.12,3.12,3.12h181.25c1.73,0,3.13-1.4,3.13-3.12v-3.3c0-6.19-4.53-11.44-10.65-12.36l-34.43-5.16c-11.03-1.65-22.12-2.74-33.23-3.27-3.38-.16-6.07-2.92-6.07-6.3v-14.92Z"/><path id="Vector_2" class="cls-5" d="M59.38,271.82c0-2.65,1.87-4.91,4.48-5.35,13.33-2.26,53.64-8.65,83.02-8.65s69.69,6.39,83.02,8.65c2.61.44,4.48,2.71,4.48,5.35,0,.85-.74,1.5-1.58,1.36-9.24-1.53-56.91-9.16-85.92-9.16s-76.68,7.64-85.92,9.16c-.84.14-1.58-.51-1.58-1.36Z"/><path id="Vector_3" class="cls-6" d="M290.62,17.97H9.37c-5.18,0-9.37,4.2-9.37,9.37v196.87c0,5.18,4.2,9.38,9.37,9.38h281.25c5.18,0,9.38-4.2,9.38-9.38V27.35c0-5.18-4.2-9.37-9.38-9.37Z"/><path id="Vector_4" class="cls-4" d="M290.62,17.97H9.37c-5.18,0-9.37,4.2-9.37,9.37v196.87c0,5.18,4.2,9.38,9.37,9.38h281.25c5.18,0,9.38-4.2,9.38-9.38V27.35c0-5.18-4.2-9.37-9.38-9.37Z"/><path id="Vector_5" class="cls-1" d="M9.37,21.1h281.25c3.45,0,6.25,2.8,6.25,6.25v190.62H3.12V27.35c0-3.45,2.8-6.25,6.25-6.25ZM0,217.97V27.35c0-5.18,4.2-9.37,9.37-9.37h281.25c5.18,0,9.38,4.2,9.38,9.37v196.87c0,5.18-4.2,9.38-9.38,9.38H9.37c-5.18,0-9.37-4.2-9.37-9.38v-6.25Z"/><path id="Vector_6" class="cls-3" d="M146.88,230.47c5.18,0,9.37-2.1,9.37-4.69s-4.2-4.69-9.37-4.69-9.38,2.1-9.38,4.69,4.2,4.69,9.38,4.69Z"/></g></svg>