<?xml version="1.0" encoding="UTF-8"?><svg id="Layer_1" xmlns="http://www.w3.org/2000/svg" xmlns:xlink="http://www.w3.org/1999/xlink" viewBox="0 0 300 300"><defs><style>.cls-1{fill:url(#radial-gradient-4);}.cls-1,.cls-2,.cls-3,.cls-4{fill-rule:evenodd;}.cls-5{fill:url(#radial-gradient-21);}.cls-5,.cls-6,.cls-7,.cls-8,.cls-9,.cls-10,.cls-11,.cls-12,.cls-13,.cls-14,.cls-15,.cls-16,.cls-17,.cls-18,.cls-19,.cls-20,.cls-21,.cls-22,.cls-23,.cls-24,.cls-25,.cls-26,.cls-27,.cls-28{isolation:isolate;}.cls-5,.cls-9,.cls-11,.cls-13,.cls-20,.cls-22,.cls-24,.cls-25,.cls-26{opacity:.4;}.cls-6{fill:url(#radial-gradient-17);}.cls-6,.cls-8,.cls-12,.cls-16,.cls-17,.cls-21,.cls-28{opacity:.2;}.cls-7{fill:url(#radial-gradient-18);}.cls-7,.cls-10,.cls-15,.cls-18,.cls-19,.cls-23,.cls-27{opacity:.6;}.cls-8{fill:url(#radial-gradient-14);}.cls-29{fill:url(#linear-gradient-2);}.cls-9{fill:url(#radial-gradient-24);}.cls-10{fill:url(#radial-gradient-7);}.cls-11{fill:url(#radial-gradient-27);}.cls-12{fill:url(#radial-gradient-16);}.cls-13{fill:url(#radial-gradient-25);}.cls-14{fill:url(#radial-gradient-13);opacity:.3;}.cls-2{fill:url(#linear-gradient-3);}.cls-30{fill:url(#radial-gradient);}.cls-15{fill:url(#radial-gradient-5);}.cls-16{fill:url(#radial-gradient-11);}.cls-3{fill:url(#radial-gradient-3);}.cls-17{fill:url(#radial-gradient-12);}.cls-31{fill:url(#radial-gradient-2);}.cls-18{fill:url(#radial-gradient-8);}.cls-19{fill:url(#radial-gradient-6);}.cls-20{fill:url(#radial-gradient-22);}.cls-21{fill:url(#radial-gradient-15);}.cls-22{fill:url(#radial-gradient-26);}.cls-23{fill:url(#radial-gradient-9);}.cls-32{fill:url(#linear-gradient);}.cls-24{fill:url(#radial-gradient-23);}.cls-25{fill:url(#radial-gradient-20);}.cls-4{fill:url(#radial-gradient-29);}.cls-26{fill:url(#radial-gradient-28);}.cls-27{fill:url(#radial-gradient-10);}.cls-28{fill:url(#radial-gradient-19);}</style><radialGradient id="radial-gradient" cx="-48.22" cy="295.4" fx="-48.22" fy="295.4" r="2.93" gradientTransform="translate(15372.46 -182.88) rotate(-90) scale(9.45 -51.53)" gradientUnits="userSpaceOnUse"><stop offset=".29" stop-color="#7d2889"/><stop offset=".72" stop-color="#ff66d9" stop-opacity=".41"/><stop offset="1" stop-color="#fff" stop-opacity="0"/></radialGradient><radialGradient id="radial-gradient-2" cx="-7.78" cy="295.4" fx="-7.78" fy="295.4" r="2.93" gradientTransform="translate(15372.46 -202.18) rotate(-90) scale(41.65 -51.53)" gradientUnits="userSpaceOnUse"><stop offset="0" stop-color="#ffca45"/><stop offset=".45" stop-color="#ff66d9" stop-opacity=".36"/><stop offset="1" stop-color="#fff" stop-opacity="0"/></radialGradient><radialGradient id="radial-gradient-3" cx="166.51" cy="249.03" fx="166.51" fy="249.03" r="110.53" gradientTransform="translate(-24.13 -20.36) scale(1.07 1.09)" gradientUnits="userSpaceOnUse"><stop offset=".43" stop-color="#ff8b54"/><stop offset=".76" stop-color="#ffbb8d"/><stop offset="1" stop-color="#f9ddd1"/></radialGradient><radialGradient id="radial-gradient-4" cx="-28.68" cy="291.47" fx="-28.68" fy="291.47" r="2.93" gradientTransform="translate(8943.66 -244.49) rotate(-90) scale(11.53 -30.17)" gradientUnits="userSpaceOnUse"><stop offset=".3" stop-color="#f9ddd1"/><stop offset=".67" stop-color="#ffbb8d"/><stop offset="1" stop-color="#ff8b54"/></radialGradient><radialGradient id="radial-gradient-5" cx="46.36" cy="338.85" fx="46.36" fy="338.85" r="2.93" gradientTransform="translate(-2401.92 -261.47) rotate(90) scale(7.64 -7.51)" gradientUnits="userSpaceOnUse"><stop offset=".38" stop-color="#fff4eb"/><stop offset="1" stop-color="#fff3eb" stop-opacity="0"/></radialGradient><radialGradient id="radial-gradient-6" cx="66.3" cy="355.37" fx="66.3" fy="355.37" r="2.93" gradientTransform="translate(-1690.31 -261.78) rotate(90) scale(5.23 -5.14)" xlink:href="#radial-gradient-5"/><radialGradient id="radial-gradient-7" cx="67.87" cy="354.74" fx="67.87" fy="354.74" r="2.93" gradientTransform="translate(-1691.99 -257.5) rotate(90) scale(5.23 -5.14)" xlink:href="#radial-gradient-5"/><radialGradient id="radial-gradient-8" cx="68.82" cy="348.76" fx="68.82" fy="348.76" r="2.93" gradientTransform="translate(-1707.95 -254.94) rotate(90) scale(5.23 -5.14)" xlink:href="#radial-gradient-5"/><radialGradient id="radial-gradient-9" cx="67.87" cy="350.02" fx="67.87" fy="350.02" r="2.93" gradientTransform="translate(-1704.59 -257.5) rotate(90) scale(5.23 -5.14)" xlink:href="#radial-gradient-5"/><radialGradient id="radial-gradient-10" cx="128.01" cy="392.03" fx="128.01" fy="392.03" r="2.93" gradientTransform="translate(-990.45 -250.97) rotate(90) scale(2.81 -2.77)" xlink:href="#radial-gradient-5"/><radialGradient id="radial-gradient-11" cx="126.84" cy="424.19" fx="126.84" fy="424.19" r="2.93" gradientTransform="translate(-944.24 -252.68) rotate(90) scale(2.81 -2.77)" xlink:href="#radial-gradient-5"/><radialGradient id="radial-gradient-12" cx="181.22" cy="476.75" fx="181.22" fy="476.75" r="2.92" gradientTransform="translate(-702.83 -247.65) rotate(90) scale(2.01 -1.98)" xlink:href="#radial-gradient-5"/><radialGradient id="radial-gradient-13" cx="100.72" cy="396.36" fx="100.72" fy="396.36" r="2.93" gradientTransform="translate(-1183.12 -250.02) rotate(90) scale(3.62 -3.56)" xlink:href="#radial-gradient-5"/><radialGradient id="radial-gradient-14" cx="118.07" cy="413.08" fx="118.07" fy="413.08" r="2.93" gradientTransform="translate(-960.2 -265.49) rotate(90) scale(2.81 -2.77)" xlink:href="#radial-gradient-5"/><radialGradient id="radial-gradient-15" cx="162.39" cy="447.27" fx="162.39" fy="447.27" r="2.93" gradientTransform="translate(-733.08 -267.3) rotate(90) scale(2.01 -1.98)" xlink:href="#radial-gradient-5"/><radialGradient id="radial-gradient-16" cx="164.85" cy="433.35" fx="164.85" fy="433.35" r="2.93" gradientTransform="translate(-747.36 -264.74) rotate(90) scale(2.01 -1.98)" xlink:href="#radial-gradient-5"/><radialGradient id="radial-gradient-17" cx="66.61" cy="362.61" fx="66.61" fy="362.61" r="2.93" gradientTransform="translate(-1670.98 -260.92) rotate(90) scale(5.23 -5.14)" xlink:href="#radial-gradient-5"/><radialGradient id="radial-gradient-18" cx="65.98" cy="360.72" fx="65.98" fy="360.72" r="2.93" gradientTransform="translate(-1676.02 -262.63) rotate(90) scale(5.23 -5.14)" xlink:href="#radial-gradient-5"/><radialGradient id="radial-gradient-19" cx="66.93" cy="361.67" fx="66.93" fy="361.67" r="2.93" gradientTransform="translate(-1673.5 -260.07) rotate(90) scale(5.23 -5.14)" xlink:href="#radial-gradient-5"/><linearGradient id="linear-gradient" x1="324.39" y1="-231.1" x2="241.98" y2="-16.28" gradientTransform="translate(-156 56) scale(1 -1)" gradientUnits="userSpaceOnUse"><stop offset="0" stop-color="#e0b1cc"/><stop offset=".43" stop-color="#fff1f1"/><stop offset="1" stop-color="#ffc9a5"/></linearGradient><linearGradient id="linear-gradient-2" x1="342.88" y1="-141.5" x2="416.66" y2="-141.5" gradientTransform="translate(-156 56) scale(1 -1)" gradientUnits="userSpaceOnUse"><stop offset="0" stop-color="#d16ae9"/><stop offset="1" stop-color="#ff661d"/></linearGradient><linearGradient id="linear-gradient-3" x1="212.97" y1="-58.42" x2="392.59" y2="-211.62" gradientTransform="translate(-156 56) scale(1 -1)" gradientUnits="userSpaceOnUse"><stop offset="0" stop-color="#ff661d"/><stop offset=".5" stop-color="#ce3a00"/><stop offset="1" stop-color="#a60a5e"/></linearGradient><radialGradient id="radial-gradient-20" cx="226.25" cy="414.52" fx="226.25" fy="414.52" r="2.92" gradientTransform="translate(-766.69 -200.67) rotate(90) scale(2.01 -1.98)" gradientUnits="userSpaceOnUse"><stop offset=".38" stop-color="#f9ddd1"/><stop offset="1" stop-color="#fff3eb" stop-opacity="0"/></radialGradient><radialGradient id="radial-gradient-21" cx="228.71" cy="411.25" fx="228.71" fy="411.25" r="2.93" gradientTransform="translate(-770.05 -198.1) rotate(90) scale(2.01 -1.98)" xlink:href="#radial-gradient-20"/><radialGradient id="radial-gradient-22" cx="228.71" cy="413.7" fx="228.71" fy="413.7" r="2.93" gradientTransform="translate(-767.53 -198.11) rotate(90) scale(2.01 -1.98)" xlink:href="#radial-gradient-20"/><radialGradient id="radial-gradient-23" cx="230.35" cy="416.98" fx="230.35" fy="416.98" r="2.92" gradientTransform="translate(-764.17 -196.4) rotate(90) scale(2.01 -1.98)" xlink:href="#radial-gradient-20"/><radialGradient id="radial-gradient-24" cx="229.53" cy="482.48" fx="229.53" fy="482.48" r="2.92" gradientTransform="translate(-696.95 -197.25) rotate(90) scale(2.01 -1.98)" xlink:href="#radial-gradient-20"/><radialGradient id="radial-gradient-25" cx="188.39" cy="451.89" fx="188.39" fy="451.89" r="2.93" gradientTransform="translate(-816.39 -201.47) rotate(90) scale(2.41 -2.37)" xlink:href="#radial-gradient-20"/><radialGradient id="radial-gradient-26" cx="188.39" cy="448.48" fx="188.39" fy="448.48" r="2.93" gradientTransform="translate(-820.6 -201.47) rotate(90) scale(2.41 -2.37)" xlink:href="#radial-gradient-20"/><radialGradient id="radial-gradient-27" cx="160.76" cy="425.36" fx="160.76" fy="425.36" r="2.93" gradientTransform="translate(-942.56 -203.13) rotate(90) scale(2.81 -2.77)" xlink:href="#radial-gradient-20"/><radialGradient id="radial-gradient-28" cx="163.1" cy="383.26" fx="163.1" fy="383.26" r="2.93" gradientTransform="translate(-1003.06 -199.71) rotate(90) scale(2.81 -2.77)" xlink:href="#radial-gradient-20"/><radialGradient id="radial-gradient-29" cx="52.02" cy="384.09" fx="52.02" fy="384.09" r="2.93" gradientTransform="translate(-1750.03 -842.93) rotate(110.72) scale(5.94 -5.86) skewX(.63)" gradientUnits="userSpaceOnUse"><stop offset="0" stop-color="#fdf7f2"/><stop offset="1" stop-color="#ffd8bd"/></radialGradient></defs><path class="cls-30" d="M150,300c82.84,0,150-12.31,150-27.5s-67.16-27.5-150-27.5S0,257.31,0,272.5s67.16,27.5,150,27.5Z"/><path class="cls-31" d="M150,242.5c82.84,0,150-54.29,150-121.25S232.84,0,150,0,0,54.29,0,121.25s67.16,121.25,150,121.25h0Z"/><path class="cls-3" d="M235.55,237.76c1.5-3.85-.36-8.21-4.14-9.73s-8.07.36-9.57,4.21.36,8.21,4.14,9.73c.25.1.51.19.77.26-.19.5-.33,1.02-.42,1.54-4.71,2.75-6.33,8.87-3.63,13.66,2.7,4.79,8.71,6.44,13.42,3.69,0,0,0,0,0,0,.61,5.49,5.49,9.43,10.88,8.81,1.62-.19,3.17-.78,4.51-1.73,1.75,3.74,6.15,5.33,9.83,3.56,3.68-1.78,5.25-6.25,3.5-9.99-.45-.96-1.09-1.81-1.88-2.49,3.67-4.08,3.39-10.4-.62-14.13-3.76-3.49-9.52-3.49-13.28,0-2.04-2.46-5.4-3.32-8.34-2.13-.69-2.56-2.66-4.56-5.17-5.26ZM76.23,242.5c0,.98-.14,1.97-.42,2.91,7.25,1.84,11.65,9.31,9.84,16.67-1.81,7.37-9.15,11.85-16.4,10.01-1.27-.32-2.49-.83-3.62-1.51-1.53,1.25-3.43,1.93-5.39,1.93-1.49,0-2.96-.39-4.25-1.14-1.41,3.14-5.05,4.53-8.14,3.1-1.94-.9-3.28-2.75-3.55-4.91-3.83,1.4-8.06-.62-9.44-4.51-1.38-3.9.61-8.19,4.44-9.6,1.6-.59,3.36-.59,4.96-.01-.23-5.52,3.98-10.19,9.4-10.42,1.12-.05,2.24.1,3.32.43-1.6-5.28,1.32-10.88,6.51-12.5,5.19-1.62,10.7,1.34,12.29,6.62.29.95.43,1.94.43,2.94h0Z"/><path class="cls-1" d="M162.29,62.5c0,1.23-.22,2.41-.62,3.5.73.36,1.41.81,2.03,1.34,2.01-3.4,5.82-5.27,9.69-4.76,2.66-4.81,8.66-6.52,13.39-3.81,3.2,1.83,5.13,5.31,5.01,9.04,2.58.68,4.79,2.4,6.1,4.76,2.45.3,4.69,1.53,6.29,3.42,6.25-2.71,13.47.24,16.14,6.59,1.59,3.79,1.24,8.12-.92,11.6,1.75,1.19,3.07,2.92,3.79,4.93,3.21-4.46,9.36-5.43,13.75-2.17,4.07,3.03,5.23,8.69,2.69,13.12,5.4.62,9.28,5.58,8.66,11.06-.61,5.49-5.48,9.43-10.88,8.81-3.1-.36-5.85-2.19-7.41-4.93H76.23v-3.84c-4.71,2.76-10.72,1.12-13.44-3.67-1.7-3-1.76-6.68-.14-9.73-4.22-3.48-4.86-9.78-1.44-14.07,2.98-3.73,8.15-4.78,12.31-2.5,1.86-2.34,4.67-3.7,7.63-3.7,0-5.52,4.4-10,9.83-10,.43,0,.85.03,1.28.08,1.99-3.58,5.93-5.56,9.94-4.98-2.78-4.75-1.24-10.88,3.43-13.7,3.69-2.23,8.38-1.77,11.58,1.14,4.47-.39,8.63,2.35,10.12,6.65,1.28-.88,2.75-1.43,4.28-1.62,2.23-4.01,6.88-5.95,11.24-4.7,1.16-5.4,6.4-8.82,11.7-7.65,4.52,1,7.75,5.07,7.75,9.77h0Z"/><path class="cls-15" d="M143.85,115c12.9,0,23.36-10.63,23.36-23.75s-10.46-23.75-23.36-23.75h0c-12.9,0-23.36,10.63-23.36,23.75s10.46,23.75,23.36,23.75h0Z"/><path class="cls-19" d="M136.48,100c8.83,0,15.99-7.27,15.99-16.25,0-8.98-7.15-16.25-15.98-16.25h0c-8.83,0-15.98,7.28-15.98,16.25,0,8.97,7.16,16.25,15.98,16.25Z"/><path class="cls-10" d="M131.56,112.5c8.83,0,15.99-7.27,15.99-16.25,0-8.98-7.15-16.25-15.98-16.25h0c-8.83,0-15.98,7.28-15.98,16.25,0,8.97,7.16,16.25,15.98,16.25Z"/><path class="cls-18" d="M84.84,120c8.83,0,15.99-7.27,15.99-16.25,0-8.98-7.15-16.25-15.98-16.25h0c-8.83,0-15.98,7.28-15.98,16.25,0,8.97,7.16,16.25,15.98,16.25Z"/><path class="cls-23" d="M94.67,112.5c8.83,0,15.99-7.27,15.99-16.25,0-8.98-7.15-16.25-15.98-16.25h0c-8.83,0-15.98,7.28-15.98,16.25,0,8.97,7.16,16.25,15.98,16.25Z"/><path class="cls-27" d="M94.67,117.5c4.75,0,8.61-3.91,8.61-8.75,0-4.83-3.85-8.75-8.6-8.75h0c-4.75,0-8.6,3.92-8.6,8.75,0,4.83,3.85,8.74,8.6,8.75Z"/><path class="cls-16" d="M229.92,112.5c4.75,0,8.61-3.91,8.61-8.75s-3.85-8.75-8.6-8.75h0c-4.75,0-8.6,3.92-8.6,8.75,0,4.83,3.85,8.74,8.6,8.75Z"/><path class="cls-17" d="M239.75,122.5c3.39,0,6.15-2.79,6.15-6.24,0-3.45-2.75-6.25-6.14-6.26h-.01c-3.39,0-6.14,2.8-6.14,6.26,0,3.45,2.75,6.24,6.14,6.24Z"/><path class="cls-14" d="M227.46,125c6.11,0,11.07-5.04,11.07-11.25s-4.95-11.25-11.07-11.25-11.07,5.04-11.07,11.25,4.95,11.25,11.07,11.25Z"/><path class="cls-8" d="M183.2,75c4.75,0,8.61-3.91,8.61-8.75,0-4.83-3.85-8.75-8.6-8.75h0c-4.75,0-8.6,3.92-8.6,8.75,0,4.83,3.85,8.74,8.6,8.75Z"/><path class="cls-21" d="M151.23,65c3.4,0,6.15-2.8,6.15-6.25s-2.75-6.25-6.15-6.25-6.15,2.8-6.15,6.25,2.75,6.25,6.15,6.25Z"/><path class="cls-12" d="M109.42,72.5c3.4,0,6.15-2.8,6.15-6.25s-2.75-6.25-6.15-6.25h0c-3.4,0-6.15,2.8-6.15,6.25s2.75,6.25,6.15,6.25Z"/><path class="cls-6" d="M193.03,102.5c8.83,0,15.99-7.27,15.99-16.25,0-8.98-7.15-16.25-15.98-16.25h0c-8.83,0-15.98,7.28-15.98,16.25,0,8.97,7.16,16.25,15.98,16.25Z"/><path class="cls-7" d="M178.28,97.5c8.83.13,16.08-7.05,16.21-16.02.12-8.97-6.93-16.35-15.76-16.48-.15,0-.3,0-.45,0-8.83,0-15.98,7.28-15.98,16.25,0,8.97,7.16,16.25,15.98,16.25h0Z"/><path class="cls-28" d="M185.66,105c8.83,0,15.99-7.27,15.99-16.25s-7.15-16.25-15.98-16.25h0c-8.83,0-15.98,7.28-15.98,16.25,0,8.97,7.16,16.25,15.98,16.25Z"/><path class="cls-32" d="M59.02,115h140.17l-12.3,165h-118.03s-9.84-165-9.84-165Z"/><path class="cls-29" d="M223.77,270l-36.89,10,12.3-165,46.72,12.5s-22.13,142.5-22.13,142.5Z"/><path class="cls-2" d="M144.78,147.88l.79-32.88h-29.34l.33,31.26c-5.12,1.16-10.04,3.12-14.58,5.8l-1.02-37.06h-29.4l9.15,165h24.82l-.99-35.65c4.14,2.13,8.54,3.69,13.08,4.62l.33,31.03h23.62l.78-32.09c4.01-1.19,7.87-2.88,11.48-5.02l-1.16,37.11h26l8.57-165h-29.43l-1.21,38.88c-3.68-2.51-7.65-4.52-11.84-6h0ZM195.03,277.79l9.22-2.5,18.27-154.05-14.07-3.77s-13.42,160.32-13.42,160.32ZM209.49,273.87l7.24-1.96,24.49-145.66-13.67-3.66-18.06,151.28ZM167.21,197.5c0,22.09-17.61,40-39.34,40s-39.34-17.91-39.34-40,17.61-40,39.34-40,39.34,17.91,39.34,40ZM144.8,219.09l-5.3-17.43,12.84-9.68c.54-.41.65-1.18.25-1.73-.21-.29-.53-.47-.88-.5-5.39-.44-10.79-.73-16.2-.87l-6.49-18.15c-.23-.65-.94-.98-1.58-.75-.34.13-.61.4-.73.75l-6.49,18.15c-5.5.14-10.91.44-16.2.87-.67.06-1.17.66-1.11,1.34.03.35.21.68.49.89l12.83,9.68-5.3,17.43c-.2.66.16,1.36.81,1.57.36.11.75.05,1.06-.16l15.06-10.42,15.06,10.42c.56.39,1.33.24,1.71-.33.21-.31.27-.71.16-1.07h0Z"/><path class="cls-25" d="M52.87,260c3.39,0,6.15-2.79,6.15-6.24,0-3.45-2.75-6.25-6.14-6.26h-.01c-3.39,0-6.14,2.8-6.14,6.26,0,3.45,2.75,6.24,6.14,6.24Z"/><path class="cls-5" d="M43.03,267.5c3.4,0,6.15-2.8,6.15-6.25s-2.75-6.25-6.15-6.25-6.15,2.8-6.15,6.25,2.75,6.25,6.15,6.25Z"/><path class="cls-20" d="M50.41,267.5c3.4,0,6.15-2.8,6.15-6.25s-2.75-6.25-6.15-6.25-6.15,2.8-6.15,6.25,2.75,6.25,6.15,6.25Z"/><path class="cls-24" d="M60.25,272.5c3.39,0,6.15-2.79,6.15-6.24,0-3.45-2.75-6.25-6.14-6.26h-.01c-3.39,0-6.14,2.8-6.14,6.26,0,3.45,2.75,6.24,6.14,6.24Z"/><path class="cls-9" d="M256.97,270c3.39,0,6.15-2.79,6.15-6.24,0-3.45-2.75-6.25-6.14-6.26h-.01c-3.39,0-6.14,2.8-6.14,6.26,0,3.45,2.75,6.24,6.14,6.24Z"/><path class="cls-13" d="M255.74,260c4.07,0,7.38-3.36,7.38-7.5s-3.3-7.5-7.38-7.5-7.38,3.36-7.38,7.5,3.3,7.5,7.38,7.5Z"/><path class="cls-22" d="M243.44,260c4.07,0,7.38-3.36,7.38-7.5s-3.3-7.5-7.38-7.5-7.38,3.36-7.38,7.5,3.3,7.5,7.38,7.5Z"/><path class="cls-11" d="M234.83,257.5c4.75,0,8.61-3.92,8.61-8.75s-3.85-8.75-8.61-8.75-8.61,3.92-8.61,8.75,3.85,8.75,8.61,8.75Z"/><path class="cls-26" d="M57.79,267.5c4.75,0,8.61-3.92,8.61-8.75s-3.85-8.75-8.61-8.75h0c-4.75,0-8.61,3.92-8.61,8.75s3.85,8.75,8.61,8.75Z"/><path class="cls-4" d="M231.15,250c4.07,0,7.38,3.36,7.38,7.5,5.43,0,9.84,4.47,9.84,10,0,5.52-4.4,10-9.83,10.01-.93,0-1.86-.13-2.76-.4-1.12,3.98-5.21,6.28-9.12,5.14-3.46-1.01-5.7-4.42-5.29-8.06-4.31-2.05-6.16-7.26-4.15-11.64,1.23-2.67,3.7-4.53,6.57-4.95v-.09c0-4.14,3.3-7.5,7.38-7.5h0Z"/></svg>