<?xml version="1.0" encoding="UTF-8"?><svg id="Layer_5" xmlns="http://www.w3.org/2000/svg" xmlns:xlink="http://www.w3.org/1999/xlink" viewBox="0 0 300 300"><defs><style>.cls-1{fill:url(#radial-gradient-10);}.cls-2{fill:url(#radial-gradient-9);}.cls-3{fill:url(#radial-gradient-5);}.cls-4{fill:url(#radial-gradient);}.cls-5{fill:url(#radial-gradient-3);}.cls-6{fill:url(#radial-gradient-8);}.cls-7{fill:url(#radial-gradient-2);}.cls-8{fill:url(#radial-gradient-6);isolation:isolate;opacity:.35;}.cls-9{fill:url(#radial-gradient-4);}.cls-10{fill:url(#radial-gradient-7);}</style><radialGradient id="radial-gradient" cx=".78" cy="313" fx=".78" fy="313" r="5.68" gradientTransform="translate(-7075.91 -7233.7) rotate(135) scale(32.81 -32.81)" gradientUnits="userSpaceOnUse"><stop offset="0" stop-color="#99421d"/><stop offset=".33" stop-color="#99161d"/><stop offset=".67" stop-color="#7d1845"/><stop offset="1" stop-color="#59216e"/></radialGradient><radialGradient id="radial-gradient-2" cx="-.4" cy="306.88" fx="-.4" fy="306.88" r="5.68" gradientTransform="translate(-16384.82 -16002.71) rotate(133.87) scale(75.32 -75.32)" gradientUnits="userSpaceOnUse"><stop offset="0" stop-color="#ffdccc"/><stop offset=".33" stop-color="#ffbdc0"/><stop offset=".67" stop-color="#f89dc6"/><stop offset="1" stop-color="#e4a1fa"/></radialGradient><radialGradient id="radial-gradient-3" cx="-.32" cy="308.93" fx="-.32" fy="308.93" r="5.68" gradientTransform="translate(-12174.83 -11970.18) rotate(133.94) scale(68.74 -55.95)" xlink:href="#radial-gradient"/><radialGradient id="radial-gradient-4" cx="-.32" cy="308.93" fx="-.32" fy="308.93" r="5.68" gradientTransform="translate(-12174.83 -11970.18) rotate(133.94) scale(68.74 -55.95)" xlink:href="#radial-gradient"/><radialGradient id="radial-gradient-5" cx="-.32" cy="308.93" fx="-.32" fy="308.93" r="5.68" gradientTransform="translate(-12174.86 -11970.2) rotate(133.94) scale(68.74 -55.95)" xlink:href="#radial-gradient"/><radialGradient id="radial-gradient-6" cx="2.07" cy="319.39" fx="2.07" fy="319.39" r="5.68" gradientTransform="translate(-5065.39 -5200.09) rotate(135) scale(23.33 -23.33)" gradientUnits="userSpaceOnUse"><stop offset="0" stop-color="#ffa984"/><stop offset=".33" stop-color="#ff787f"/><stop offset=".67" stop-color="#f45fa2"/><stop offset="1" stop-color="#c44af1"/></radialGradient><radialGradient id="radial-gradient-7" cx=".01" cy="312.75" fx=".01" fy="312.75" r="5.68" gradientTransform="translate(-9273.19 -9456.49) rotate(135) scale(43.27 -43.27)" gradientUnits="userSpaceOnUse"><stop offset="0" stop-color="#ef7744"/><stop offset=".33" stop-color="#e50914"/><stop offset=".67" stop-color="#a70d53"/><stop offset="1" stop-color="#792a95"/></radialGradient><radialGradient id="radial-gradient-8" cx="-.65" cy="308.35" fx="-.65" fy="308.35" r="5.68" gradientTransform="translate(-12395.3 -13602.5) rotate(137.15) scale(73.66 -60.36)" gradientUnits="userSpaceOnUse"><stop offset="0" stop-color="#ffdccc"/><stop offset=".33" stop-color="#fdf6f6"/><stop offset=".67" stop-color="#fadce9"/><stop offset="1" stop-color="#e4a1fa"/></radialGradient><radialGradient id="radial-gradient-9" cx="-.65" cy="308.35" fx="-.65" fy="308.35" r="5.68" xlink:href="#radial-gradient-8"/><radialGradient id="radial-gradient-10" cx="-.65" cy="308.35" fx="-.65" fy="308.35" r="5.68" gradientTransform="translate(-12395.3 -13602.5) rotate(137.15) scale(73.66 -60.36)" xlink:href="#radial-gradient-8"/></defs><g id="profiles-core-small"><path id="Vector" class="cls-4" d="M6.82,34.09c0-15.06,12.21-27.27,27.27-27.27h143.18c15.06,0,27.27,12.21,27.27,27.27v143.18c0,15.06-12.21,27.27-27.27,27.27H34.09c-15.06,0-27.27-12.21-27.27-27.27V34.09Z"/><path id="Vector_2" class="cls-7" d="M0,27.27C0,12.21,12.21,0,27.27,0h143.18c15.06,0,27.27,12.21,27.27,27.27v143.18c0,15.06-12.21,27.27-27.27,27.27H27.27c-15.06,0-27.27-12.21-27.27-27.27V27.27Z"/><path id="Vector_3" class="cls-5" d="M51.14,69.88c0,6.59-5.34,11.93-11.93,11.93s-11.93-5.34-11.93-11.93,5.34-11.93,11.93-11.93,11.93,5.34,11.93,11.93Z"/><path id="Vector_4" class="cls-9" d="M170.45,69.88c0,6.59-5.34,11.93-11.93,11.93s-11.93-5.34-11.93-11.93,5.34-11.93,11.93-11.93,11.93,5.34,11.93,11.93Z"/><path id="Vector_5" class="cls-3" d="M79.95,112.78c-2.43-1.44-5.57-.64-7.01,1.79-1.44,2.43-.64,5.57,1.79,7.01,6.09,3.61,22.81,10.09,44.79,10.09s38.71-6.48,44.79-10.09c2.43-1.44,3.23-4.58,1.79-7.01-1.44-2.43-4.58-3.23-7.01-1.79-4.46,2.64-19.37,8.66-39.58,8.66s-35.12-6.02-39.58-8.66Z"/><path id="Vector_6" class="cls-8" d="M54.55,197.73h51.14l23.86-95.45c-12.05,3.29-22.42,11.01-29.02,21.61l-45.98,73.84Z"/><path id="Vector_7" class="cls-10" d="M102.27,129.55c0-15.06,12.21-27.27,27.27-27.27h143.18c15.06,0,27.27,12.21,27.27,27.27v143.18c0,15.06-12.21,27.27-27.27,27.27h-143.18c-15.06,0-27.27-12.21-27.27-27.27v-143.18Z"/><path id="Vector_8" class="cls-6" d="M153.41,172.15c0,6.59-5.34,11.93-11.93,11.93s-11.93-5.34-11.93-11.93,5.34-11.93,11.93-11.93,11.93,5.34,11.93,11.93Z"/><path id="Vector_9" class="cls-2" d="M272.73,172.15c0,6.59-5.34,11.93-11.93,11.93s-11.93-5.34-11.93-11.93,5.34-11.93,11.93-11.93,11.93,5.34,11.93,11.93Z"/><path id="Vector_10" class="cls-1" d="M183.08,215.91c-2.43-1.44-5.57-.64-7.01,1.79s-.64,5.57,1.79,7.01c6.09,3.61,22.81,10.09,44.79,10.09s38.71-6.48,44.79-10.09c2.43-1.44,3.23-4.58,1.79-7.01-1.44-2.43-4.58-3.23-7.01-1.79-4.46,2.64-19.37,8.66-39.58,8.66s-35.12-6.02-39.58-8.66Z"/></g></svg>