<?xml version="1.0" encoding="UTF-8"?><svg id="Layer_4" xmlns="http://www.w3.org/2000/svg" xmlns:xlink="http://www.w3.org/1999/xlink" viewBox="0 0 300 300"><defs><style>.cls-1{fill:url(#radial-gradient-7);opacity:.4;}.cls-1,.cls-2,.cls-3{isolation:isolate;}.cls-2{fill:url(#radial-gradient-6);opacity:.85;}.cls-4{fill:url(#radial-gradient-5);}.cls-5{fill:url(#radial-gradient);}.cls-6{fill:url(#radial-gradient-3);}.cls-7{fill:url(#radial-gradient-2);}.cls-3{fill:url(#radial-gradient-8);opacity:.6;}.cls-8{fill:url(#radial-gradient-4);}.cls-9{fill:url(#linear-gradient);fill-rule:evenodd;}</style><radialGradient id="radial-gradient" cx="2.44" cy="313.47" fx="2.44" fy="313.47" r="5.68" gradientTransform="translate(-7524.56 -7667.92) rotate(135) scale(34.91 -34.91)" gradientUnits="userSpaceOnUse"><stop offset="0" stop-color="#99421d"/><stop offset=".33" stop-color="#99161d"/><stop offset=".67" stop-color="#7d1845"/><stop offset="1" stop-color="#59216e"/></radialGradient><radialGradient id="radial-gradient-2" cx="1.29" cy="310.82" fx="1.29" fy="310.82" r="5.68" gradientTransform="translate(-9558.19 -9726.48) rotate(135) scale(44.55 -44.53)" gradientUnits="userSpaceOnUse"><stop offset="0" stop-color="#ef7744"/><stop offset=".33" stop-color="#e50914"/><stop offset=".67" stop-color="#a70d53"/><stop offset="1" stop-color="#792a95"/></radialGradient><radialGradient id="radial-gradient-3" cx="1.63" cy="314.9" fx="1.63" fy="314.9" r="5.68" gradientTransform="translate(-6861.19 -7009.38) rotate(135) scale(31.81 -31.81)" gradientUnits="userSpaceOnUse"><stop offset="0" stop-color="#fb540d"/><stop offset=".33" stop-color="#e50914"/><stop offset=".67" stop-color="#a70d53"/><stop offset="1" stop-color="#792a95"/></radialGradient><radialGradient id="radial-gradient-4" cx="-2.05" cy="319.56" fx="-2.05" fy="319.56" r="5.68" gradientTransform="translate(-5256.3 -5302.91) rotate(134.33) scale(24.04 -24.04)" gradientUnits="userSpaceOnUse"><stop offset="0" stop-color="#ffdccc"/><stop offset=".33" stop-color="#ffbdc0"/><stop offset=".67" stop-color="#f89dc6"/><stop offset="1" stop-color="#e4a1fa"/></radialGradient><radialGradient id="radial-gradient-5" cx="-8.32" cy="335.4" fx="-8.32" fy="335.4" r="5.68" gradientTransform="translate(-2476.7 -3264.45) rotate(141.87) scale(9.87 -12.82)" gradientUnits="userSpaceOnUse"><stop offset=".31" stop-color="#f89dc6"/><stop offset=".65" stop-color="#e75094"/><stop offset="1" stop-color="#59216e"/></radialGradient><radialGradient id="radial-gradient-6" cx="-4.28" cy="334.61" fx="-4.28" fy="334.61" r="5.68" gradientTransform="translate(-2889.2 -3038) rotate(135) scale(13.15 -13.15)" gradientUnits="userSpaceOnUse"><stop offset="0" stop-color="#fff"/><stop offset="1" stop-color="#fff" stop-opacity="0"/></radialGradient><radialGradient id="radial-gradient-7" cx="2.4" cy="375.14" fx="2.4" fy="375.14" r="5.68" gradientTransform="translate(-1465.15 -1413.78) rotate(131.08) scale(5.09 -6.01)" xlink:href="#radial-gradient-6"/><radialGradient id="radial-gradient-8" cx="2.37" cy="332.34" fx="2.37" fy="332.34" r="5.68" gradientTransform="translate(-2862.47 -3243.77) rotate(137.62) scale(13.58 -13.58)" gradientUnits="userSpaceOnUse"><stop offset="0" stop-color="#ffa984"/><stop offset="1" stop-color="#f7636b" stop-opacity="0"/></radialGradient><linearGradient id="linear-gradient" x1="363.98" y1="-56.81" x2="248.08" y2="-172.72" gradientTransform="translate(-156 56) scale(1 -1)" gradientUnits="userSpaceOnUse"><stop offset="0" stop-color="#ef7744"/><stop offset=".33" stop-color="#e50914"/><stop offset=".67" stop-color="#a70d53"/><stop offset="1" stop-color="#792a95"/></linearGradient></defs><g id="telescope-core-small"><path id="Vector" class="cls-5" d="M82.1,153.41l54.27,55.61-89.76,59.51s-10.87,4.74-23.74-9.09c-12.86-13.83-8.53-22.87-8.53-22.87l67.76-83.16Z"/><path id="Vector_2" class="cls-7" d="M87.7,139.76l62.3,67.91-62.15,43.48s-18.37,7.35-39.56-15.84c-21.19-23.19-12.38-36.97-12.38-36.97l51.79-58.59Z"/><path id="Vector_3" class="cls-6" d="M167.05,19.42l114.2,117.38-150.95,95.09s-21.51-.9-46.22-27.98c-24.7-27.08-16.98-55-16.98-55L167.05,19.42Z"/><path id="Vector_4" class="cls-8" d="M273.13,32.67c30.87,33.69,35.88,79.19,11.18,101.62-24.7,22.44-69.75,13.32-100.62-20.37-30.87-33.69-35.88-79.19-11.18-101.62,24.7-22.44,69.75-13.32,100.62,20.37Z"/><path id="Vector_5" class="cls-4" d="M277.15,123.03c-20.26,18.46-57.75,10.38-83.73-18.04-25.98-28.42-30.61-66.42-10.35-84.87,20.26-18.46,57.75-10.38,83.73,18.04,25.98,28.42,30.61,66.42,10.35,84.87Z"/><path id="Vector_6" class="cls-2" d="M284.54,109.21c5.1-26.39-.14-46.76-19.99-69.34-19.85-22.58-50.05-32.69-70.34-21.93-25.05,13.29,26.1,4.75,54.99,38.76,24.82,29.22,30.65,76.81,35.34,52.51Z"/><path id="Vector_7" class="cls-1" d="M231.81,88.88c.32,8.4-6.28,14.33-14.74,13.25-8.47-1.09-15.59-8.78-15.92-17.18-.32-8.4,6.28-14.33,14.74-13.25,8.47,1.09,15.59,8.78,15.92,17.18Z"/><path id="Vector_8" class="cls-3" d="M155.24,64.79l-59.64,75.9c-.55,11.92,10.59,29.49,20.5,36.77l63.64-62.07c-9.29-9.72-24.29-33-24.5-50.61Z"/><path id="Vector_9" class="cls-9" d="M59.42,0l8.08,12.03,14.32-3.71-9.33,11.15,8.08,12.03-13.84-5.14-9.33,11.15.78-14.32-13.84-5.14,14.32-3.71.78-14.32ZM279.41,245.45l1.06,20.83,19.53,5.4-18.88,7.48,1.06,20.83-12.73-16.21-18.88,7.48,11.01-17.5-12.73-16.21,19.53,5.4,11.01-17.5ZM31.85,83l3.81-18.23-13.62,12.47-15.87-9.32,7.46,17.03L0,97.42l18.23-1.95,7.46,17.03,3.81-18.23,18.23-1.95-15.87-9.32Z"/></g></svg>